# xmcd CD database file
# Copyright (C) 1993-1998 Ti Kan
#
# Track frame offsets:
#	150
#	13222
#	24845
#	36120
#	48635
#	59485
#	72437
#	88100
#	99515
#	112715
#	124815
#	140877
#	151792
#	164952
#	176415
#	186255
#	201630
#	216962
#
# Disc length: 3032 seconds
#
# Revision: 1
# Processed by: cddbd v1.4b41PL1 Copyright (c) Steve Scherf et al.
# Submitted via: NotifyCDPlayer(CDDB) 1.51.2
#
DISCID=0e0bd612
DTITLE=Various Artist - Heartbreaker Sweet and Tender Volume 4
DYEAR=1900
DGENRE=
TTITLE0=Rose Garden
TTITLE1=Heartaches By The Number
TTITLE2=The Happiest Girl In The Whole U.S.A.
TTITLE3=What In The World's Come Over You
TTITLE4=Singing The Blues
TTITLE5=I'll Be Home
TTITLE6=Luckenbach Texas
TTITLE7=Help Me Make It Through The Night
TTITLE8=Tennessee Waltz
TTITLE9=High Noon
TTITLE10=Rocky
TTITLE11=Oh Lonesome Me
TTITLE12=Slide Off Your Satin Sheets
TTITLE13=Will The Circle Be Unbroken
TTITLE14=I Can't Stop Loving You
TTITLE15=No Charge
TTITLE16=You Light Up My Life
TTITLE17=Bring It On Home To Me
EXTD=
EXTT0=
EXTT1=
EXTT2=
EXTT3=
EXTT4=
EXTT5=
EXTT6=
EXTT7=
EXTT8=
EXTT9=
EXTT10=
EXTT11=
EXTT12=
EXTT13=
EXTT14=
EXTT15=
EXTT16=
EXTT17=
PLAYORDER=
